<svg width="48" height="48" viewBox="0 0 48 48" fill="none" xmlns="http://www.w3.org/2000/svg">
<rect width="48" height="48" fill="#F7FAFF"/>
<path fill-rule="evenodd" clip-rule="evenodd" d="M24.5339 15.0499C22.3839 15.674 20.7917 16.1629 20.5948 16.2592C19.5146 16.7878 18.8891 18.1862 19.1987 19.3802C19.3093 19.8066 19.3992 19.9702 20.513 21.7709C21.0615 22.6578 21.5217 23.4136 21.5354 23.4506C21.5519 23.4947 20.9562 23.8938 19.7968 24.6153L18.0332 25.7129L18.2594 25.7474C18.3838 25.7664 18.6177 25.7836 18.7792 25.7857C19.7379 25.7981 21.4775 26.0576 24.2543 26.6026C26.743 27.091 27.6408 27.2279 29.0701 27.3368C29.3319 27.3568 29.403 27.3099 29.2915 27.1909C29.2665 27.1642 29.0167 26.7704 28.7363 26.3157L28.2265 25.489L28.5773 25.7849C29.6596 26.6977 31.1515 26.8653 32.4017 26.2145C32.869 25.9713 33.5165 25.3361 33.7718 24.8706C34.0793 24.3098 34.1905 23.8625 34.1905 23.1859C34.1905 22.1826 33.8971 21.4779 33.1787 20.7564C32.4605 20.035 31.6515 19.7267 30.6125 19.7786C29.7153 19.8234 28.9664 20.1649 28.3458 20.8125C27.9781 21.1962 27.7479 21.5702 27.5712 22.0712C27.3866 22.5945 27.3535 23.4973 27.4985 24.0538C27.5534 24.2643 27.595 24.44 27.5909 24.444C27.5847 24.4502 26.0678 22.0018 24.9591 20.1961L24.6728 19.7298L25.3403 19.537C28.4884 18.6272 29.3474 18.3662 29.5805 18.2486C30.0855 17.9938 30.5175 17.4632 30.6816 16.8961C31.1083 15.4216 30.0293 13.9903 28.4983 14C28.1903 14.002 27.6575 14.1431 24.5339 15.0499ZM15.9189 27.3277C14.3927 27.4518 11.8366 27.9586 11.379 28.2278C10.8912 28.5148 10.8703 29.1878 11.3393 29.5025C11.5725 29.659 11.8166 29.6513 12.5194 29.4652C14.5042 28.9399 16.7986 28.71 18.6889 28.8472C20.165 28.9543 20.9876 29.0793 23.619 29.5969C26.3094 30.126 27.2988 30.278 28.7778 30.3894C29.7597 30.4632 31.8551 30.4214 32.7931 30.3092C34.2324 30.1369 36.3043 29.715 36.6186 29.5301C37.2215 29.1754 37.0814 28.2976 36.397 28.1426C36.2688 28.1135 36.0336 28.1479 35.5115 28.272C34.6723 28.4714 33.2675 28.7154 32.4119 28.8104C32.0355 28.8522 31.2181 28.8773 30.2772 28.876C28.1792 28.8731 27.298 28.7651 23.8477 28.0877C21.1616 27.5603 20.292 27.4261 18.8922 27.3229C18.0723 27.2625 16.6932 27.2647 15.9189 27.3277ZM15.9189 30.9013C14.3927 31.0254 11.8366 31.5322 11.379 31.8014C10.8912 32.0884 10.8703 32.7614 11.3393 33.0761C11.5725 33.2326 11.8166 33.2249 12.5194 33.0389C14.5042 32.5135 16.7986 32.2836 18.6889 32.4208C20.165 32.5279 20.9876 32.653 23.619 33.1705C26.3094 33.6996 27.2988 33.8516 28.7778 33.963C29.7597 34.0369 31.8551 33.9951 32.7931 33.8828C34.2324 33.7105 36.3043 33.2886 36.6186 33.1037C37.2215 32.749 37.0814 31.8713 36.397 31.7162C36.269 31.6872 36.0329 31.7215 35.5115 31.8448C32.7791 32.4913 30.1827 32.6368 27.4818 32.2949C26.5846 32.1813 25.857 32.0541 23.8477 31.6595C21.2225 31.1439 20.3346 31.0065 18.9201 30.8967C18.1347 30.8357 16.6976 30.8379 15.9189 30.9013Z" fill="#0063E0"/>
</svg>
