<svg width="48" height="48" viewBox="0 0 48 48" fill="none" xmlns="http://www.w3.org/2000/svg">
<rect width="48" height="48" fill="#F7FAFF"/>
<path fill-rule="evenodd" clip-rule="evenodd" d="M14.3482 13.5494L10.4133 17.6466L14.3401 17.6612C16.4998 17.6691 20.0438 17.6691 22.2154 17.6612L26.1639 17.6466L22.2914 13.6241C20.1616 11.4118 18.3884 9.56803 18.3511 9.52696C18.2964 9.46674 17.5182 10.2488 14.3482 13.5494ZM10.2856 24.2752V29.1758H12.2497H14.2138L14.2337 27.0654C14.2556 24.7301 14.2653 24.655 14.6416 23.8993C15.1812 22.8155 16.1398 22.0332 17.3114 21.7207C17.7993 21.5905 18.7293 21.5892 19.2489 21.7178C20.395 22.0017 21.4567 22.8714 21.9556 23.9352C22.3223 24.7173 22.333 24.801 22.3562 27.0932L22.3774 29.1748L25.4509 29.1894L28.5245 29.2041L30.0878 32.2351C32.7528 37.402 32.6394 37.1942 32.9882 37.5512C33.3384 37.9098 33.6811 38.1318 34.1619 38.3117C34.4544 38.4212 34.6231 38.4335 36.0983 38.4539L37.7142 38.4762V36.7436V35.0112L36.4074 35.0104L35.1006 35.0097L33.0812 31.0935C31.9706 28.9396 30.9715 27.0573 30.8611 26.9108C30.5105 26.4452 30.0919 26.1301 29.5261 25.9056C29.1528 25.7575 29.1055 25.7529 27.7236 25.7317L26.3044 25.7098V22.5422V19.3746H18.295H10.2856V24.2752ZM17.8173 23.3459C17.1215 23.4828 16.4457 24.0369 16.1143 24.742L15.9344 25.125L15.917 27.1504L15.8998 29.1758H18.2918H20.6838V27.3705C20.6838 26.3777 20.6581 25.428 20.6268 25.2601C20.4539 24.3348 19.7075 23.5633 18.7967 23.3688C18.3649 23.2766 18.1902 23.2725 17.8173 23.3459ZM10.2856 34.6712V38.4671H12.0561H13.8266V36.9941V35.521H18.295H22.7634V36.9941V38.4671H24.5339H26.3044V34.6712V30.8754H24.5339H22.7634V32.3484V33.8214H18.295H13.8266V32.3484V30.8754H12.0561H10.2856V34.6712Z" fill="#0063E0"/>
</svg>
