<svg width="48" height="48" viewBox="0 0 48 48" fill="none" xmlns="http://www.w3.org/2000/svg">
<rect width="48" height="48" fill="#F7FAFF"/>
<path fill-rule="evenodd" clip-rule="evenodd" d="M33.0892 8.1167C29.4483 8.65409 26.4126 10.2381 24.2241 12.7423C23.6797 13.3652 22.8212 14.5537 21.8582 16.0178C20.5329 18.0326 18.3936 22.1383 17.4314 24.5135C17.2926 24.856 16.9767 25.5335 16.7293 26.0191C15.3316 28.7629 13.9756 31.9716 12.5788 35.8406C12.0396 37.334 12.0024 37.4689 12 37.9374C11.9969 38.5493 12.1529 38.9146 12.6096 39.3652C13.0588 39.8083 13.5204 39.9981 14.1542 40C14.742 40.0018 15.0521 39.8769 15.3842 39.505C15.6573 39.1991 15.7089 39.0879 16.1258 37.9061C16.9871 35.464 17.9774 32.9439 18.8804 30.8961C19.146 30.2936 19.3799 29.7812 19.4002 29.7574C19.4203 29.7336 19.8216 30.5504 20.2918 31.5725C22.2918 35.9198 23.7054 38.8009 24.0005 39.1314C24.8415 40.0734 26.5519 39.7047 27.1639 38.4497C27.4141 37.9367 27.4568 37.6252 27.3387 37.1751C27.286 36.9747 26.8303 35.9658 26.3258 34.9331C24.7019 31.6084 22.7865 27.4541 22.8269 27.3441C22.8457 27.2929 22.9911 27.266 23.2466 27.2663C23.7799 27.2671 30.1098 26.1035 30.465 25.9394C30.7515 25.8071 31.0399 25.456 31.1696 25.0815C31.4283 24.3353 30.9758 22.6604 30.1617 21.3511C29.714 20.6311 29.2169 20.017 28.4389 19.2231C27.9276 18.7014 27.649 18.3616 27.5265 18.1107C27.335 17.7182 26.5899 16.9008 26.0066 16.4432L25.6545 16.1669L25.8216 15.9112C26.3203 15.1481 27.13 14.2531 27.8313 13.6895C29.6309 12.2435 31.6143 11.4878 34.5794 11.1184C35.2299 11.0373 35.4107 10.9612 35.6865 10.6523C36.3709 9.88586 35.8706 8.43152 34.8065 8.09354C34.3964 7.96329 34.1017 7.96729 33.0892 8.1167ZM29.894 13.4918C28.6987 13.8676 27.9352 14.8818 27.9352 16.0936C27.9352 16.856 28.1903 17.4518 28.7532 18.0037C29.1814 18.4237 29.6702 18.6717 30.2582 18.7675C32.1015 19.0679 33.7216 17.4561 33.4089 15.633C33.134 14.0305 31.4477 13.0032 29.894 13.4918ZM26.484 21.8095C26.7737 22.1249 27.1696 22.657 27.3849 23.0203L27.5579 23.3126L27.2208 23.3786C26.218 23.5751 24.4746 23.885 24.4589 23.8695C24.3987 23.8104 26.1178 21.5702 26.2234 21.5702C26.2458 21.5702 26.3631 21.6779 26.484 21.8095Z" fill="#0063E0"/>
</svg>
