<svg width="48" height="48" viewBox="0 0 48 48" fill="none" xmlns="http://www.w3.org/2000/svg">
<rect width="48" height="48" fill="#F7FAFF"/>
<path fill-rule="evenodd" clip-rule="evenodd" d="M17.1519 10.1232C16.9185 10.2395 16.7853 10.433 14.7294 13.6398C13.5328 15.5062 12.5258 17.1151 12.4916 17.2152C12.4052 17.468 12.4721 17.7417 12.6749 17.9646C12.8981 18.21 13.123 18.2652 13.9007 18.2656L14.5385 18.2659L12.6705 20.9721C10.8122 23.664 10.6799 23.8878 10.7613 24.2007C10.8026 24.3595 11.0437 24.6469 11.2132 24.7393C11.2859 24.779 11.6822 24.8169 12.2014 24.8339L13.0682 24.8622L11.0847 27.5066C9.99363 28.961 9.07151 30.2374 9.03538 30.343C8.89881 30.7426 9.17286 31.2341 9.59533 31.3473C9.88242 31.4243 25.1507 31.4243 25.4378 31.3473C25.8596 31.2343 26.1344 30.7426 25.9983 30.3446C25.9625 30.2399 25.0521 28.9635 23.9752 27.5082L22.0173 24.8622L22.8862 24.8339C23.4072 24.8169 23.8039 24.779 23.8767 24.7393C24.0462 24.6469 24.2873 24.3595 24.3286 24.2007C24.41 23.8878 24.2777 23.664 22.4194 20.9721L20.5513 18.2659L21.1892 18.2656C21.9668 18.2652 22.1918 18.21 22.4149 17.9646C22.6178 17.7417 22.6847 17.468 22.5983 17.2152C22.5641 17.1151 21.5571 15.5062 20.3605 13.6398C18.3046 10.433 18.1714 10.2395 17.938 10.1232C17.8022 10.0554 17.6253 10 17.5449 10C17.4646 10 17.2877 10.0554 17.1519 10.1232ZM29.062 10.1232C28.8286 10.2395 28.6954 10.433 26.6395 13.6398C25.4429 15.5062 24.4359 17.1151 24.4017 17.2152C24.3153 17.468 24.3822 17.7417 24.5851 17.9646C24.8082 18.21 25.0331 18.2652 25.8117 18.2656L26.4503 18.2659L25.4912 19.6528L24.5322 21.0398L25.1669 21.9697C25.5247 22.4938 25.8455 23.0293 25.9021 23.1966C26.2131 24.1163 25.9807 25.0752 25.2836 25.748L24.9802 26.0408L26.2044 27.6959C26.8777 28.6062 27.4755 29.4562 27.5329 29.5849C27.7569 30.0868 27.792 30.8658 27.6106 31.3079C27.5734 31.3987 27.8233 31.4037 32.384 31.4034C35.4764 31.4032 37.271 31.3832 37.4047 31.3473C37.8271 31.2341 38.1012 30.7426 37.9646 30.343C37.9285 30.2374 37.0064 28.961 35.9153 27.5066L33.9318 24.8622L34.7986 24.8339C35.3178 24.8169 35.7141 24.779 35.7868 24.7393C35.9563 24.6469 36.1974 24.3595 36.2387 24.2007C36.3201 23.8878 36.1878 23.664 34.3295 20.9721L32.4615 18.2659L33.0993 18.2656C33.877 18.2652 34.1019 18.21 34.3251 17.9646C34.5279 17.7417 34.5949 17.468 34.5084 17.2152C34.4742 17.1151 33.4672 15.5062 32.2706 13.6398C30.2147 10.433 30.0815 10.2395 29.8481 10.1232C29.5374 9.9682 29.3728 9.9682 29.062 10.1232ZM15.8435 34.7155V36.3851H12.7469C9.32485 36.3851 9.39898 36.378 9.13582 36.734C9.04411 36.8581 9.00935 36.9831 9.00935 37.1886C9.00935 37.4947 9.11325 37.6806 9.39983 37.8871L9.55648 38H23.5H37.4435L37.6002 37.8871C37.8867 37.6806 37.9907 37.4947 37.9907 37.1886C37.9907 36.9831 37.9559 36.8581 37.8642 36.734C37.601 36.378 37.6751 36.3851 34.2531 36.3851H31.1565V34.7155V33.0459H29.4551H27.7536V34.7155V36.3851H23.5H19.2464V34.7155V33.0459H17.5449H15.8435V34.7155Z" fill="#0063E0"/>
</svg>
