<svg width="48" height="48" viewBox="0 0 48 48" fill="none" xmlns="http://www.w3.org/2000/svg">
<rect width="48" height="48" fill="#F7FAFF"/>
<path fill-rule="evenodd" clip-rule="evenodd" d="M29.8457 10.3531C29.3488 10.4628 29.1317 10.6016 28.5078 11.2079L27.9138 11.7851L27.6262 11.502C27.4678 11.3461 27.1899 11.15 27.0079 11.0656C26.7212 10.9326 26.6114 10.9126 26.1814 10.9151C25.3909 10.9197 25.1643 11.033 24.3864 11.8134C23.9795 12.2216 23.7067 12.5446 23.6329 12.7056C23.4579 13.0874 23.3833 13.5845 23.4483 13.9363C23.5654 14.5697 23.6278 14.6471 25.6937 16.7243L27.64 18.6811L22.7781 23.5419L17.9161 28.4026L15.96 26.4563C13.8706 24.3774 13.8026 24.323 13.15 24.208C12.7759 24.1421 12.3503 24.2072 11.9569 24.3905C11.7915 24.4676 11.4633 24.735 11.0957 25.0924C10.2918 25.8739 10.1458 26.1596 10.1493 26.9432C10.1525 27.6223 10.2539 27.8789 10.7069 28.3538L11.0198 28.6818L10.4331 29.2772C9.75558 29.9647 9.58063 30.2735 9.53059 30.8704C9.49572 31.2862 9.59931 31.7529 9.80252 32.0956C9.86545 32.2017 10.3765 32.753 10.9383 33.3208L11.9598 34.353L11.4328 34.8911C10.8819 35.4534 10.7643 35.6262 10.7034 35.9624C10.573 36.683 11.3172 37.4272 12.0379 37.2968C12.3741 37.2359 12.5469 37.1183 13.1093 36.5675L13.6474 36.0405L14.6797 37.0619C15.2475 37.6236 15.7989 38.1347 15.9049 38.1976C16.2477 38.4008 16.7144 38.5044 17.1303 38.4695C17.7275 38.4195 18.0359 38.2447 18.7254 37.5652L19.3226 36.9769L19.6112 37.2601C19.7699 37.4159 20.0362 37.6131 20.2029 37.6983C20.4755 37.8378 20.5612 37.8534 21.0578 37.8534C21.8424 37.8534 22.129 37.7064 22.9086 36.9045C23.248 36.5555 23.5346 36.2065 23.6036 36.0583C23.7758 35.6886 23.8484 35.2119 23.7884 34.8452C23.6835 34.2048 23.6238 34.1301 21.5446 32.0396L19.5983 30.0827L24.4605 25.2212L29.3226 20.3596L31.222 22.2595C33.2679 24.3059 33.4322 24.4377 34.0628 24.5384C34.8537 24.6646 35.4109 24.4203 36.2302 23.5878C36.9693 22.8368 37.0915 22.5858 37.0915 21.8199C37.0915 21.3327 37.0743 21.2339 36.9426 20.9659C36.8607 20.7992 36.664 20.5325 36.5054 20.3731L36.2171 20.0834L36.8045 19.4874C37.4828 18.7991 37.6577 18.4905 37.7077 17.8935C37.7426 17.4776 37.639 17.011 37.4358 16.6682C37.3729 16.5622 36.8618 16.0109 36.3 15.4431L35.2786 14.4108L35.8056 13.8728C36.3564 13.3105 36.4741 13.1377 36.5349 12.8015C36.6653 12.0808 35.9211 11.3367 35.2004 11.4671C34.8643 11.5279 34.6914 11.6455 34.1297 12.1958L33.5922 12.7221L32.5593 11.6995C31.4543 10.6056 31.2281 10.4445 30.6461 10.3369C30.2621 10.2659 30.2379 10.2664 29.8457 10.3531Z" fill="#0063E0"/>
</svg>
