<svg width="48" height="48" viewBox="0 0 48 48" fill="none" xmlns="http://www.w3.org/2000/svg">
<rect width="48" height="48" fill="#F7FAFF"/>
<path d="M34.6666 34.6667C34.6666 35.0203 34.5261 35.3594 34.2761 35.6095C34.026 35.8595 33.6869 36 33.3333 36H14.6666C14.313 36 13.9738 35.8595 13.7238 35.6095C13.4737 35.3594 13.3333 35.0203 13.3333 34.6667V22.6667H9.33325L23.1026 10.1493C23.3481 9.92597 23.668 9.80219 23.9999 9.80219C24.3318 9.80219 24.6518 9.92597 24.8973 10.1493L38.6666 22.6667H34.6666V34.6667ZM23.9999 30.6667L28.4786 26.188C28.7572 25.9094 28.9781 25.5787 29.1289 25.2147C29.2797 24.8507 29.3573 24.4606 29.3573 24.0667C29.3573 23.6727 29.2797 23.2826 29.1289 22.9186C28.9781 22.5546 28.7572 22.2239 28.4786 21.9453C28.2 21.6667 27.8693 21.4458 27.5053 21.295C27.1413 21.1442 26.7512 21.0666 26.3573 21.0666C25.9633 21.0666 25.5732 21.1442 25.2092 21.295C24.8452 21.4458 24.5145 21.6667 24.2359 21.9453L23.9999 22.1813L23.7639 21.9453C23.4853 21.6667 23.1546 21.4458 22.7906 21.295C22.4267 21.1442 22.0366 21.0666 21.6426 21.0666C21.2486 21.0666 20.8585 21.1442 20.4945 21.295C20.1305 21.4458 19.7998 21.6667 19.5213 21.9453C19.2427 22.2239 19.0217 22.5546 18.8709 22.9186C18.7202 23.2826 18.6426 23.6727 18.6426 24.0667C18.6426 24.4606 18.7202 24.8507 18.8709 25.2147C19.0217 25.5787 19.2427 25.9094 19.5213 26.188L23.9999 30.6667Z" fill="#0063E0"/>
</svg>
