<svg width="48" height="48" viewBox="0 0 48 48" fill="none" xmlns="http://www.w3.org/2000/svg">
<rect width="48" height="48" fill="#F7FAFF"/>
<path d="M31.7782 30.3847L24 38L16.2218 30.3847C14.6834 28.8786 13.6358 26.9596 13.2114 24.8705C12.7869 22.7815 13.0048 20.6161 13.8373 18.6482C14.6699 16.6803 16.0798 14.9984 17.8887 13.815C19.6977 12.6316 21.8244 12 24 12C26.1756 12 28.3023 12.6316 30.1113 13.815C31.9202 14.9984 33.3301 16.6803 34.1627 18.6482C34.9952 20.6161 35.2131 22.7815 34.7886 24.8705C34.3642 26.9596 33.3166 28.8786 31.7782 30.3847ZM24 25.1627C24.6483 25.1627 25.2701 24.9105 25.7285 24.4617C26.1869 24.0129 26.4444 23.4042 26.4444 22.7695C26.4444 22.1347 26.1869 21.526 25.7285 21.0772C25.2701 20.6284 24.6483 20.3762 24 20.3762C23.3517 20.3762 22.7299 20.6284 22.2715 21.0772C21.8131 21.526 21.5556 22.1347 21.5556 22.7695C21.5556 23.4042 21.8131 24.0129 22.2715 24.4617C22.7299 24.9105 23.3517 25.1627 24 25.1627Z" fill="#0063E0"/>
</svg>
