<svg width="48" height="48" viewBox="0 0 48 48" fill="none" xmlns="http://www.w3.org/2000/svg">
<rect width="48" height="48" fill="#F7FAFF"/>
<path d="M13.3333 16.552L9.00928 12.2293L10.8959 10.3427L15.2186 14.6667H35.5413C35.7491 14.6667 35.954 14.7152 36.1398 14.8085C36.3255 14.9018 36.4868 15.0372 36.6109 15.2039C36.735 15.3706 36.8184 15.564 36.8545 15.7686C36.8905 15.9733 36.8783 16.1836 36.8186 16.3827L33.6186 27.0493C33.5363 27.3241 33.3675 27.565 33.1374 27.7363C32.9073 27.9075 32.6281 28 32.3413 28H15.9999V30.6667H30.6666V33.3333H14.6666C14.313 33.3333 13.9739 33.1929 13.7238 32.9428C13.4738 32.6928 13.3333 32.3536 13.3333 32V16.552ZM15.3333 38.6667C14.8028 38.6667 14.2941 38.4559 13.9191 38.0809C13.544 37.7058 13.3333 37.1971 13.3333 36.6667C13.3333 36.1362 13.544 35.6275 13.9191 35.2525C14.2941 34.8774 14.8028 34.6667 15.3333 34.6667C15.8637 34.6667 16.3724 34.8774 16.7475 35.2525C17.1226 35.6275 17.3333 36.1362 17.3333 36.6667C17.3333 37.1971 17.1226 37.7058 16.7475 38.0809C16.3724 38.4559 15.8637 38.6667 15.3333 38.6667ZM31.3333 38.6667C30.8028 38.6667 30.2941 38.4559 29.9191 38.0809C29.544 37.7058 29.3333 37.1971 29.3333 36.6667C29.3333 36.1362 29.544 35.6275 29.9191 35.2525C30.2941 34.8774 30.8028 34.6667 31.3333 34.6667C31.8637 34.6667 32.3724 34.8774 32.7475 35.2525C33.1226 35.6275 33.3333 36.1362 33.3333 36.6667C33.3333 37.1971 33.1226 37.7058 32.7475 38.0809C32.3724 38.4559 31.8637 38.6667 31.3333 38.6667Z" fill="#0063E0"/>
</svg>
