<svg width="48" height="48" viewBox="0 0 48 48" fill="none" xmlns="http://www.w3.org/2000/svg">
<rect width="48" height="48" fill="#F7FAFF"/>
<path d="M16.9289 31.0709C18.7114 32.8517 21.1029 33.8902 23.6209 33.9769C23.1579 31.2039 23.9859 28.2559 26.1209 26.1209C28.2569 23.9859 31.2039 23.1579 33.9769 23.6209C33.8849 21.1879 32.9239 18.7819 31.0709 16.9289C29.2179 15.0759 26.8109 14.1149 24.3789 14.0229C24.8419 16.7959 24.0139 19.7439 21.8789 21.8789C19.7429 24.0139 16.7959 24.8419 14.0229 24.3789C14.1088 26.8972 15.1474 29.289 16.9289 31.0709Z" fill="#0063E0"/>
<path d="M27.5349 27.5349C26.7211 28.3495 26.1209 29.3523 25.7875 30.4544C25.4541 31.5565 25.398 32.7239 25.6239 33.853C27.687 33.5216 29.5929 32.5479 31.0704 31.0704C32.5479 29.5929 33.5216 27.687 33.8529 25.6239C32.7239 25.3982 31.5566 25.4545 30.4545 25.7879C29.3524 26.1212 28.3496 26.7213 27.5349 27.5349ZM20.4649 20.4649C21.2788 19.6504 21.879 18.6476 22.2124 17.5455C22.5458 16.4434 22.6019 15.276 22.3759 14.1469C20.3127 14.4781 18.4066 15.4517 16.9289 16.9292C15.4512 18.4067 14.4773 20.3128 14.1459 22.3759C15.2752 22.6018 16.4426 22.5455 17.5449 22.2121C18.6471 21.8788 19.6501 21.2787 20.4649 20.4649Z" fill="#0063E0"/>
</svg>
