<svg width="13" height="13" viewBox="0 0 13 13" fill="none" xmlns="http://www.w3.org/2000/svg">
<path d="M0.750033 5.39534C2.18733 8.52576 4.74484 11.0146 7.9245 12.3639L8.43419 12.591C9.6003 13.1105 10.9711 12.7158 11.6824 11.6557L12.3484 10.6629C12.565 10.3401 12.4991 9.90538 12.1965 9.66133L9.93765 7.83898C9.60586 7.57132 9.11798 7.63366 8.86416 7.97616L8.16536 8.91911C6.37225 8.0346 4.91647 6.57881 4.03196 4.7857L4.9749 4.08691C5.31739 3.83309 5.37974 3.34521 5.11207 3.01342L3.28967 0.754462C3.04566 0.452001 2.61103 0.386026 2.28826 0.602452L1.28863 1.27273C0.221868 1.98801 -0.170667 3.37014 0.360882 4.53936L0.749448 5.39407L0.750033 5.39534Z" fill="#0063E0"/>
</svg>
