<svg width="48" height="48" viewBox="0 0 48 48" fill="none" xmlns="http://www.w3.org/2000/svg">
<path fill-rule="evenodd" clip-rule="evenodd" d="M11.5597 31.0607C10.9739 31.6464 10.0241 31.6464 9.43836 31.0607L3.43836 25.0607C2.85257 24.4749 2.85258 23.5251 3.43836 22.9393L9.43836 16.9393C10.0242 16.3536 10.9739 16.3536 11.5597 16.9393C12.1455 17.5251 12.1455 18.4749 11.5597 19.0607L6.62034 24L11.5597 28.9393C12.1455 29.5251 12.1455 30.4749 11.5597 31.0607Z" fill="#0C194A"/>
<path fill-rule="evenodd" clip-rule="evenodd" d="M44.999 24C44.999 24.8284 44.3275 25.5 43.499 25.5L4.49902 25.5C3.67059 25.5 2.99902 24.8284 2.99902 24C2.99902 23.1716 3.67059 22.5 4.49902 22.5L43.499 22.5C44.3275 22.5 44.999 23.1716 44.999 24Z" fill="#0C194A"/>
</svg>
