<svg width="24" height="24" viewBox="0 0 24 24" fill="none" xmlns="http://www.w3.org/2000/svg">
<g clip-path="url(#clip0_871_2856)">
<path d="M10.0071 9.11238L15.1071 12.0106L10.0071 14.9088V9.11238ZM24 2.57131V21.4285V23.9999H21.4286H2.57143H4.08718e-07L0 21.4285V2.57131L1.02179e-07 -0.000116757L2.57143 -0.000116348H21.4286L24 -0.000121662V2.57131ZM21.75 12.016C21.75 12.016 21.75 8.8231 21.3429 7.29095C21.1179 6.44452 20.4589 5.78024 19.6179 5.55524C18.1018 5.14274 12 5.14274 12 5.14274C12 5.14274 5.89821 5.14274 4.38214 5.55524C3.54107 5.78024 2.88214 6.44452 2.65714 7.29095C2.25 8.81774 2.25 12.016 2.25 12.016C2.25 12.016 2.25 15.2088 2.65714 16.741C2.88214 17.5874 3.54107 18.2249 4.38214 18.4499C5.89821 18.857 12 18.857 12 18.857C12 18.857 18.1018 18.857 19.6179 18.4445C20.4589 18.2195 21.1179 17.582 21.3429 16.7356C21.75 15.2088 21.75 12.016 21.75 12.016Z" fill="#636A83"/>
</g>
<defs>
<clipPath id="clip0_871_2856">
<rect width="24" height="24" fill="white"/>
</clipPath>
</defs>
</svg>
