<svg width="48" height="48" viewBox="0 0 48 48" fill="none" xmlns="http://www.w3.org/2000/svg">
<path fill-rule="evenodd" clip-rule="evenodd" d="M36.4403 16.9393C37.0261 16.3536 37.9759 16.3536 38.5616 16.9393L44.5616 22.9393C45.1474 23.5251 45.1474 24.4749 44.5616 25.0607L38.5616 31.0607C37.9759 31.6464 37.0261 31.6464 36.4403 31.0607C35.8545 30.4749 35.8545 29.5251 36.4403 28.9393L41.3797 24L36.4403 19.0607C35.8545 18.4749 35.8545 17.5251 36.4403 16.9393Z" fill="#0C194A"/>
<path fill-rule="evenodd" clip-rule="evenodd" d="M3.00098 24C3.00098 23.1716 3.67255 22.5 4.50098 22.5H43.501C44.3294 22.5 45.001 23.1716 45.001 24C45.001 24.8284 44.3294 25.5 43.501 25.5H4.50098C3.67255 25.5 3.00098 24.8284 3.00098 24Z" fill="#0C194A"/>
</svg>
