<svg width="68" height="68" viewBox="0 0 68 68" fill="none" xmlns="http://www.w3.org/2000/svg">
<path d="M25.6667 49.0001L49.0001 34.0001L25.6667 19.0001V49.0001ZM34.0001 67.3334C29.389 67.3334 25.0556 66.4579 21.0001 64.7067C16.9445 62.9579 13.4167 60.5834 10.4167 57.5834C7.41675 54.5834 5.0423 51.0556 3.29342 47.0001C1.5423 42.9445 0.666748 38.6112 0.666748 34.0001C0.666748 29.389 1.5423 25.0556 3.29342 21.0001C5.0423 16.9445 7.41675 13.4167 10.4167 10.4167C13.4167 7.41675 16.9445 5.04119 21.0001 3.29008C25.0556 1.54119 29.389 0.666748 34.0001 0.666748C38.6112 0.666748 42.9445 1.54119 47.0001 3.29008C51.0556 5.04119 54.5834 7.41675 57.5834 10.4167C60.5834 13.4167 62.9579 16.9445 64.7067 21.0001C66.4579 25.0556 67.3334 29.389 67.3334 34.0001C67.3334 38.6112 66.4579 42.9445 64.7067 47.0001C62.9579 51.0556 60.5834 54.5834 57.5834 57.5834C54.5834 60.5834 51.0556 62.9579 47.0001 64.7067C42.9445 66.4579 38.6112 67.3334 34.0001 67.3334Z" fill="white"/>
</svg>
