<svg width="135" height="71" viewBox="0 0 135 71" fill="none" xmlns="http://www.w3.org/2000/svg">
<g clip-path="url(#clip0_1003_2042)">
<path d="M35.9455 66.0405H31.9131V67.4093H35.9455V66.0405Z" fill="#FFDC21"/>
<path d="M52.5647 61.4004L49.8773 67.4351L47.1875 61.4004H45.7686L44.3359 70.2752H45.8056L46.8362 63.8488L49.7016 70.1353H50.0644L52.916 63.8488L53.9466 70.2752H55.4163L53.9974 61.4004H52.5647Z" fill="#0063E0"/>
<path d="M65.6004 61.7802C65.1315 61.5246 64.6058 61.3938 64.073 61.4001H60.8193V70.275H62.2636V67.2576H64.073C64.4663 67.2693 64.8579 67.2012 65.2246 67.0574C65.5914 66.9136 65.9258 66.697 66.2082 66.4205C66.488 66.1503 66.7087 65.824 66.8559 65.4626C67.0032 65.1011 67.0738 64.7125 67.0631 64.3219C67.0694 63.7975 66.9352 63.2811 66.6749 62.8272C66.4176 62.3862 66.0461 62.0243 65.6004 61.7802ZM65.4872 64.9515C65.4115 65.1378 65.2981 65.3061 65.1544 65.4458C65.0068 65.5836 64.8342 65.6913 64.646 65.7629C64.4381 65.84 64.2182 65.8787 63.9967 65.8772H62.2636V62.7829H63.9967C64.2859 62.7774 64.5716 62.8473 64.8263 62.9857C65.0623 63.1147 65.2601 63.3046 65.3994 63.5361C65.5392 63.7761 65.6104 64.0505 65.605 64.3289C65.6064 64.5422 65.5664 64.7537 65.4872 64.9515Z" fill="#0063E0"/>
<path d="M73.7599 61.4004H72.3157V70.2752H73.7599V61.4004Z" fill="#0063E0"/>
<path d="M80.1423 62.2069C79.8661 62.4582 79.6469 62.7666 79.4993 63.111C79.3518 63.4554 79.2795 63.8278 79.2873 64.203C79.283 64.5893 79.3618 64.972 79.5184 65.3246C79.6707 65.664 79.8928 65.9668 80.17 66.213C80.4665 66.4704 80.8104 66.6661 81.1821 66.7889L79.1348 70.275H80.8055L82.6772 66.9918H84.311V70.275H85.7622V61.4001H82.2775C81.4883 61.3755 80.7213 61.6653 80.1423 62.2069ZM84.3133 62.7712V65.6603H82.3537C81.9371 65.678 81.5298 65.5327 81.2168 65.2546C81.0706 65.123 80.9548 64.9606 80.8778 64.7789C80.8007 64.5972 80.7642 64.4005 80.7708 64.203C80.7645 64.0088 80.8005 63.8157 80.8764 63.6371C80.9522 63.4586 81.0661 63.2991 81.2099 63.17C81.5272 62.8955 81.9361 62.7529 82.3537 62.7712H84.3133Z" fill="#0063E0"/>
<path d="M100.632 66.0405H96.5999V67.4093H100.632V66.0405Z" fill="#FFDC21"/>
<path d="M7.60107 55.1137H10.0205V45.7818H13.9789V55.1137H16.4168V43.4663H7.60107V55.1137Z" fill="#0063E0"/>
<path d="M25.4891 43.2612C24.6889 43.2385 23.8924 43.3792 23.1475 43.675C22.4025 43.9707 21.7245 44.4153 21.154 44.982C20.0429 46.1358 19.4214 47.6812 19.4214 49.29C19.4214 50.8988 20.0429 52.4443 21.154 53.598C21.7245 54.1648 22.4025 54.6094 23.1475 54.9051C23.8924 55.2008 24.6889 55.3416 25.4891 55.3189C26.575 55.3335 27.6463 55.0652 28.5995 54.5401C29.5104 54.0329 30.264 53.2806 30.7763 52.3668C31.3008 51.4281 31.571 50.3665 31.5596 49.2889C31.5789 48.4894 31.435 47.6945 31.1369 46.9536C30.8387 46.2127 30.3927 45.5416 29.8265 44.982C29.2556 44.4153 28.5771 43.9708 27.8318 43.6751C27.0865 43.3794 26.2897 43.2386 25.4891 43.2612ZM29.1056 49.2889C29.1216 49.7728 29.039 50.2549 28.863 50.7053C28.6869 51.1558 28.421 51.5649 28.0819 51.9075C27.3849 52.5797 26.4579 52.9548 25.4938 52.9548C24.5296 52.9548 23.6026 52.5797 22.9056 51.9075C22.3877 51.3947 22.0338 50.7372 21.8895 50.0197C21.7453 49.3021 21.8173 48.5574 22.0962 47.8816C22.3752 47.2057 22.8483 46.6296 23.4547 46.2275C24.0611 45.8254 24.7729 45.6158 25.4984 45.6256C25.9775 45.6089 26.4548 45.6933 26.8997 45.8736C27.3446 46.0539 27.7473 46.3261 28.0819 46.6726C28.4206 47.0149 28.6862 47.4237 28.8623 47.8737C29.0384 48.3237 29.1212 48.8053 29.1056 49.2889Z" fill="#0063E0"/>
<path d="M43.5041 43.4731H35.8784L35.8553 43.7623C35.7721 44.7494 35.7012 45.5702 35.6427 46.2247C35.5842 46.8791 35.5225 47.5274 35.4578 48.1694C35.3885 48.8106 35.3307 49.3353 35.2776 49.72C35.2244 50.1048 35.169 50.4849 35.102 50.8533C35.0545 51.1363 34.992 51.4165 34.9148 51.6927C34.8588 51.8809 34.7877 52.0642 34.7022 52.2407C34.6396 52.3729 34.5621 52.4973 34.4711 52.6115C34.407 52.6823 34.3366 52.7471 34.2608 52.805H33.1909V57.2541H35.4717V55.1135H42.3186V57.2541H44.5994V52.8004H43.5064L43.5041 43.4731ZM41.0685 45.7886V52.8004H36.909C37.2059 52.2195 37.4088 51.5945 37.5098 50.9489C37.7016 49.9252 37.8911 48.188 38.0714 45.784L41.0685 45.7886Z" fill="#0063E0"/>
<path d="M50.0255 43.4663H47.6038V55.116H50.0255V43.4663Z" fill="#0063E0"/>
<path d="M54.8875 51.1191C54.7581 52.5532 54.0348 52.7187 53.501 52.7187H52.6714V55.1322H53.501C55.7887 55.1322 57.0804 53.782 57.3369 51.1145L57.8245 45.784H60.8055V55.1112H63.2272V43.4731H55.65L54.8875 51.1191Z" fill="#0063E0"/>
<path d="M71.3404 47.1317H69.3554V43.4731H66.9268V55.1205H71.3404C71.8788 55.1387 72.4154 55.0485 72.9189 54.8551C73.4224 54.6617 73.8827 54.3691 74.2728 53.9942C75.0136 53.2285 75.4282 52.2009 75.4282 51.1308C75.4282 50.0607 75.0136 49.0331 74.2728 48.2673C73.8835 47.8907 73.4236 47.5962 72.9201 47.4012C72.4165 47.2063 71.8795 47.1146 71.3404 47.1317ZM69.3554 49.4496H71.2249C71.4571 49.4385 71.6892 49.474 71.9078 49.5541C72.1263 49.6341 72.327 49.7571 72.4981 49.9159C72.8104 50.2338 72.9856 50.6633 72.9856 51.111C72.9856 51.5586 72.8104 51.9881 72.4981 52.306C72.327 52.4648 72.1263 52.5878 71.9078 52.6679C71.6892 52.7479 71.4571 52.7834 71.2249 52.7724H69.3554V49.4496Z" fill="#0063E0"/>
<path d="M86.5917 50.6436C86.4032 51.3159 85.9963 51.9047 85.4363 52.3155C84.7568 52.7737 83.9424 52.9834 83.1284 52.9096C82.3145 52.8357 81.5501 52.4829 80.9625 51.9098C80.3271 51.1891 79.9761 50.2581 79.9761 49.2935C79.9761 48.3289 80.3271 47.3979 80.9625 46.6772C81.2832 46.3404 81.6705 46.0754 82.0992 45.8994C82.528 45.7234 82.9887 45.6405 83.4513 45.6559C84.1411 45.6408 84.8191 45.8385 85.3947 46.2225C85.9444 46.6037 86.3571 47.1542 86.5709 47.7918L86.6448 48.0017H89.0689L88.9811 47.6146C88.7966 46.7797 88.426 45.9981 87.8973 45.3294C87.3755 44.676 86.7091 44.1553 85.9516 43.8091C85.1657 43.4526 84.3129 43.2713 83.4513 43.2775C82.6672 43.2564 81.8871 43.3966 81.1584 43.6897C80.4298 43.9827 79.768 44.4224 79.2132 44.982C78.0902 46.1153 77.5217 47.5633 77.5217 49.2888C77.5217 51.0144 78.0902 52.4671 79.2132 53.598C79.768 54.1576 80.4298 54.5973 81.1584 54.8903C81.8871 55.1834 82.6672 55.3236 83.4513 55.3026C84.7587 55.3292 86.0347 54.8965 87.0608 54.0784C88.0754 53.2566 88.7715 52.1011 89.0273 50.8138L89.1105 50.4291H86.6587L86.5917 50.6436Z" fill="#0063E0"/>
<path d="M96.2626 47.1317H94.2684V43.4731H91.8467V55.1205H96.2626C96.8011 55.1387 97.3377 55.0485 97.8412 54.8551C98.3447 54.6617 98.8049 54.3691 99.1951 53.9942C99.9358 53.2285 100.35 52.2009 100.35 51.1308C100.35 50.0607 99.9358 49.0331 99.1951 48.2673C98.8056 47.8909 98.3457 47.5966 97.8422 47.4016C97.3387 47.2066 96.8017 47.1149 96.2626 47.1317ZM94.2684 49.4496H96.1379C96.3701 49.4387 96.6021 49.4744 96.8206 49.5544C97.0392 49.6345 97.2398 49.7573 97.4111 49.9159C97.7234 50.2338 97.8986 50.6633 97.8986 51.111C97.8986 51.5586 97.7234 51.9881 97.4111 52.306C97.24 52.4648 97.0393 52.5878 96.8208 52.6679C96.6022 52.7479 96.3701 52.7834 96.1379 52.7724H94.2684V49.4496Z" fill="#0063E0"/>
<path d="M112.433 43.4663H109.464L106.345 47.9667H105.559V43.4663H103.139V55.1137H105.559V50.2822H106.363L109.778 55.1137H112.782L108.484 49.0999L112.433 43.4663Z" fill="#0063E0"/>
<path d="M120.177 43.4731H118.072L113.42 55.1205H116.001L116.926 52.7281H121.367L122.317 55.1205H124.933L120.177 43.4731ZM120.505 50.4686H117.806L119.144 47.0058L120.505 50.4686Z" fill="#0063E0"/>
<path d="M66.2705 14.1882L94.8761 28.839L95.9621 29.3986V26.3486L66.2705 -0.495117V14.1882Z" fill="#FFDC21"/>
<path d="M66.2705 16.7695V21.0087L95.9621 31.9799L94.8761 31.4179L66.2705 16.7695Z" fill="#FFDC21"/>
<path d="M66.289 32.4787L66.4993 32.4717H69.3601L69.3994 32.4881L76.9303 35.2979V29.3215L66.2705 25.3831V32.4787H66.289Z" fill="#FFDC21"/>
<path d="M36.5811 31.9799L66.2727 21.0087V16.7695L37.6694 31.4179L36.5811 31.9799Z" fill="#0063E0"/>
<path d="M36.5811 29.3986L37.6694 28.839L66.2727 14.1882V-0.495117L36.5811 26.3486V29.3986Z" fill="#0063E0"/>
<path d="M62.3397 26.8358L55.6152 29.3215V35.2979L63.1439 32.4881L63.1831 32.4717H66.0462L66.2542 32.4787H66.2727V25.3831L62.3397 26.8358Z" fill="#0063E0"/>
</g>
<defs>
<clipPath id="clip0_1003_2042">
<rect width="135" height="71" fill="white"/>
</clipPath>
</defs>
</svg>
